{
	"asset":{
		"generator":"Khronos glTF Blender I/O v3.6.27",
		"version":"2.0"
	},
	"extensionsUsed":[
		"KHR_materials_specular"
	],
	"scene":0,
	"scenes":[
		{
			"name":"Scene",
			"nodes":[
				6,
				14
			]
		}
	],
	"nodes":[
		{
			"name":"Brain_low",
			"scale":[
				0.39062488079071045,
				0.39062491059303284,
				0.39062491059303284
			]
		},
		{
			"name":"BrainBack_low",
			"scale":[
				0.39062488079071045,
				0.39062491059303284,
				0.39062491059303284
			]
		},
		{
			"name":"BrainStem_low",
			"scale":[
				0.39062488079071045,
				0.39062491059303284,
				0.39062491059303284
			]
		},
		{
			"children":[
				0,
				1,
				2
			],
			"name":"Brain",
			"rotation":[
				-0.7071069478988647,
				0,
				0,
				0.7071066498756409
			],
			"scale":[
				349.9999694824219,
				349.9998779296875,
				349.9998779296875
			]
		},
		{
			"children":[
				3
			],
			"name":"RootNode.001"
		},
		{
			"children":[
				4
			],
			"name":"Brain.fbx",
			"rotation":[
				0.70710688829422,
				0,
				0,
				0.7071066498756409
			],
			"scale":[
				0.009999999776482582,
				0.009999997913837433,
				0.009999997913837433
			]
		},
		{
			"children":[
				5
			],
			"name":"Sketchfab_model",
			"rotation":[
				-0.5000001788139343,
				0.5000000596046448,
				-0.49999988079071045,
				0.49999988079071045
			],
			"scale":[
				1.152962565422058,
				1.152962565422058,
				1.152962565422058
			],
			"translation":[
				-0.02026107907295227,
				0.002167820930480957,
				0
			]
		},
		{
			"mesh":0,
			"name":"Object_4"
		},
		{
			"mesh":1,
			"name":"Object_5"
		},
		{
			"mesh":2,
			"name":"Object_6"
		},
		{
			"mesh":3,
			"name":"Object_7"
		},
		{
			"children":[
				7,
				8,
				9,
				10
			],
			"name":"Serotonin_0",
			"rotation":[
				-1,
				0,
				0,
				4.0133937773134676e-07
			],
			"scale":[
				0.41474980115890503,
				0.41474974155426025,
				0.41474974155426025
			],
			"translation":[
				0.07065723091363907,
				0.08168399333953857,
				-0.23560117185115814
			]
		},
		{
			"children":[
				11
			],
			"name":"GLTF_SceneRootNode",
			"rotation":[
				0.70710688829422,
				0,
				0,
				0.7071066498756409
			]
		},
		{
			"children":[
				12
			],
			"name":"root"
		},
		{
			"children":[
				13
			],
			"name":"Sketchfab_model.002",
			"rotation":[
				-0.5000001788139343,
				0.5000000596046448,
				-0.49999988079071045,
				0.49999988079071045
			],
			"scale":[
				-0.013030366972088814,
				-0.013030365109443665,
				-0.013030365109443665
			],
			"translation":[
				0.004833559039980173,
				0.002167820930480957,
				0
			]
		}
	],
	"animations":[
		{
			"channels":[
				{
					"sampler":0,
					"target":{
						"node":11,
						"path":"rotation"
					}
				}
			],
			"name":"SerotoninAction",
			"samplers":[
				{
					"input":16,
					"interpolation":"LINEAR",
					"output":17
				}
			]
		}
	],
	"materials":[
		{
			"doubleSided":true,
			"name":"Carbon",
			"pbrMetallicRoughness":{
				"baseColorFactor":[
					0,
					0,
					0,
					1
				],
				"metallicFactor":0.7095602750778198,
				"metallicRoughnessTexture":{
					"index":0
				}
			}
		},
		{
			"doubleSided":true,
			"extensions":{
				"KHR_materials_specular":{
					"specularColorFactor":[
						0.9999999999999999,
						0.9999999999999999,
						0.9999999999999999
					]
				}
			},
			"name":"Hydrogen",
			"pbrMetallicRoughness":{
				"baseColorFactor":[
					0.36686256527900696,
					0.36686256527900696,
					0.36686256527900696,
					1
				],
				"metallicRoughnessTexture":{
					"index":1
				}
			}
		},
		{
			"doubleSided":true,
			"name":"Oxygen",
			"pbrMetallicRoughness":{
				"baseColorFactor":[
					1,
					0.009723720140755177,
					0.010956699959933758,
					1
				],
				"metallicRoughnessTexture":{
					"index":2
				}
			}
		},
		{
			"doubleSided":true,
			"name":"Nitrogen",
			"pbrMetallicRoughness":{
				"baseColorFactor":[
					0.0029837600886821747,
					0.006040070205926895,
					0.9700000286102295,
					1
				],
				"metallicRoughnessTexture":{
					"index":3
				}
			}
		}
	],
	"meshes":[
		{
			"name":"Object_0.011",
			"primitives":[
				{
					"attributes":{
						"POSITION":0,
						"NORMAL":1,
						"TEXCOORD_0":2
					},
					"indices":3,
					"material":0
				}
			]
		},
		{
			"name":"Object_1.011",
			"primitives":[
				{
					"attributes":{
						"POSITION":4,
						"NORMAL":5,
						"TEXCOORD_0":6
					},
					"indices":7,
					"material":1
				}
			]
		},
		{
			"name":"Object_2.011",
			"primitives":[
				{
					"attributes":{
						"POSITION":8,
						"NORMAL":9,
						"TEXCOORD_0":10
					},
					"indices":11,
					"material":2
				}
			]
		},
		{
			"name":"Object_3.011",
			"primitives":[
				{
					"attributes":{
						"POSITION":12,
						"NORMAL":13,
						"TEXCOORD_0":14
					},
					"indices":15,
					"material":3
				}
			]
		}
	],
	"textures":[
		{
			"sampler":0,
			"source":0
		},
		{
			"sampler":0,
			"source":1
		},
		{
			"sampler":0,
			"source":1
		},
		{
			"sampler":0,
			"source":1
		}
	],
	"images":[
		{
			"mimeType":"image/png",
			"name":"Carbon_metallicRoughness",
			"uri":"Carbon_metallicRoughness.png"
		},
		{
			"mimeType":"image/png",
			"name":"Hydrogen_metallicRoughness",
			"uri":"Hydrogen_metallicRoughness.png"
		}
	],
	"accessors":[
		{
			"bufferView":0,
			"componentType":5126,
			"count":24985,
			"max":[
				7.605940818786621,
				1.8021128177642822,
				7.549698352813721
			],
			"min":[
				-6.428185939788818,
				-3.8386361598968506,
				-7.8620524406433105
			],
			"type":"VEC3"
		},
		{
			"bufferView":1,
			"componentType":5126,
			"count":24985,
			"type":"VEC3"
		},
		{
			"bufferView":2,
			"componentType":5126,
			"count":24985,
			"type":"VEC2"
		},
		{
			"bufferView":3,
			"componentType":5123,
			"count":125880,
			"type":"SCALAR"
		},
		{
			"bufferView":4,
			"componentType":5126,
			"count":16531,
			"max":[
				10.009710311889648,
				2.6969971656799316,
				11.037168502807617
			],
			"min":[
				-8.333410263061523,
				-5.898077487945557,
				-9.709811210632324
			],
			"type":"VEC3"
		},
		{
			"bufferView":5,
			"componentType":5126,
			"count":16531,
			"type":"VEC3"
		},
		{
			"bufferView":6,
			"componentType":5126,
			"count":16531,
			"type":"VEC2"
		},
		{
			"bufferView":7,
			"componentType":5123,
			"count":87144,
			"type":"SCALAR"
		},
		{
			"bufferView":8,
			"componentType":5126,
			"count":1717,
			"max":[
				10.023136138916016,
				1.673654317855835,
				-0.3364415168762207
			],
			"min":[
				7.488831520080566,
				-0.17551666498184204,
				-2.4851393699645996
			],
			"type":"VEC3"
		},
		{
			"bufferView":9,
			"componentType":5126,
			"count":1717,
			"type":"VEC3"
		},
		{
			"bufferView":10,
			"componentType":5126,
			"count":1717,
			"type":"VEC2"
		},
		{
			"bufferView":11,
			"componentType":5123,
			"count":8832,
			"type":"SCALAR"
		},
		{
			"bufferView":12,
			"componentType":5126,
			"count":4166,
			"max":[
				-2.180500030517578,
				1.6432009935379028,
				10.181079864501953
			],
			"min":[
				-4.699743747711182,
				-4.056038856506348,
				-5.6310648918151855
			],
			"type":"VEC3"
		},
		{
			"bufferView":13,
			"componentType":5126,
			"count":4166,
			"type":"VEC3"
		},
		{
			"bufferView":14,
			"componentType":5126,
			"count":4166,
			"type":"VEC2"
		},
		{
			"bufferView":15,
			"componentType":5123,
			"count":21024,
			"type":"SCALAR"
		},
		{
			"bufferView":16,
			"componentType":5126,
			"count":251,
			"max":[
				10.416666666666666
			],
			"min":[
				0
			],
			"type":"SCALAR"
		},
		{
			"bufferView":17,
			"componentType":5126,
			"count":251,
			"type":"VEC4"
		}
	],
	"bufferViews":[
		{
			"buffer":0,
			"byteLength":299820,
			"byteOffset":0,
			"target":34962
		},
		{
			"buffer":0,
			"byteLength":299820,
			"byteOffset":299820,
			"target":34962
		},
		{
			"buffer":0,
			"byteLength":199880,
			"byteOffset":599640,
			"target":34962
		},
		{
			"buffer":0,
			"byteLength":251760,
			"byteOffset":799520,
			"target":34963
		},
		{
			"buffer":0,
			"byteLength":198372,
			"byteOffset":1051280,
			"target":34962
		},
		{
			"buffer":0,
			"byteLength":198372,
			"byteOffset":1249652,
			"target":34962
		},
		{
			"buffer":0,
			"byteLength":132248,
			"byteOffset":1448024,
			"target":34962
		},
		{
			"buffer":0,
			"byteLength":174288,
			"byteOffset":1580272,
			"target":34963
		},
		{
			"buffer":0,
			"byteLength":20604,
			"byteOffset":1754560,
			"target":34962
		},
		{
			"buffer":0,
			"byteLength":20604,
			"byteOffset":1775164,
			"target":34962
		},
		{
			"buffer":0,
			"byteLength":13736,
			"byteOffset":1795768,
			"target":34962
		},
		{
			"buffer":0,
			"byteLength":17664,
			"byteOffset":1809504,
			"target":34963
		},
		{
			"buffer":0,
			"byteLength":49992,
			"byteOffset":1827168,
			"target":34962
		},
		{
			"buffer":0,
			"byteLength":49992,
			"byteOffset":1877160,
			"target":34962
		},
		{
			"buffer":0,
			"byteLength":33328,
			"byteOffset":1927152,
			"target":34962
		},
		{
			"buffer":0,
			"byteLength":42048,
			"byteOffset":1960480,
			"target":34963
		},
		{
			"buffer":0,
			"byteLength":1004,
			"byteOffset":2002528
		},
		{
			"buffer":0,
			"byteLength":4016,
			"byteOffset":2003532
		}
	],
	"samplers":[
		{
			"magFilter":9729,
			"minFilter":9987
		}
	],
	"buffers":[
		{
			"byteLength":2007548,
			"uri":"scene.bin"
		}
	]
}
