{
	"asset":{
		"generator":"Khronos glTF Blender I/O v3.6.27",
		"version":"2.0"
	},
	"scene":0,
	"scenes":[
		{
			"name":"Scene",
			"nodes":[
				15
			]
		}
	],
	"nodes":[
		{
			"mesh":0,
			"name":"Brain_Part_01_Colour_Brain_Texture_0"
		},
		{
			"children":[
				0
			],
			"name":"Brain_Part_01"
		},
		{
			"mesh":1,
			"name":"Brain_Part_02_Colour_Brain_Texture_0"
		},
		{
			"children":[
				2
			],
			"name":"Brain_Part_02"
		},
		{
			"mesh":2,
			"name":"Brain_Part_03_Colour_Brain_Texture_0"
		},
		{
			"children":[
				4
			],
			"name":"Brain_Part_03"
		},
		{
			"mesh":3,
			"name":"Brain_Part_04_Colour_Brain_Texture_0"
		},
		{
			"children":[
				6
			],
			"name":"Brain_Part_04"
		},
		{
			"mesh":4,
			"name":"Brain_Part_05_Colour_Brain_Texture_0"
		},
		{
			"children":[
				8
			],
			"name":"Brain_Part_05"
		},
		{
			"mesh":5,
			"name":"Brain_Part_06_Colour_Brain_Texture_0"
		},
		{
			"children":[
				10
			],
			"name":"Brain_Part_06"
		},
		{
			"children":[
				1,
				3,
				5,
				7,
				9,
				11
			],
			"name":"Brain"
		},
		{
			"children":[
				12
			],
			"name":"RootNode"
		},
		{
			"children":[
				13
			],
			"name":"BrainColourExport.fbx",
			"rotation":[
				0.70710688829422,
				0,
				0,
				0.7071066498756409
			],
			"scale":[
				0.010000000707805157,
				0.010000001639127731,
				0.010000001639127731
			]
		},
		{
			"children":[
				14
			],
			"name":"Sketchfab_model",
			"rotation":[
				-0.5,
				-0.5,
				-0.5000000596046448,
				0.5
			],
			"scale":[
				6.460918426513672,
				6.460918426513672,
				6.460918426513672
			],
			"translation":[
				0,
				-0.01596921868622303,
				0
			]
		}
	],
	"materials":[
		{
			"doubleSided":true,
			"name":"Colour_Brain_Texture.009",
			"pbrMetallicRoughness":{
				"baseColorTexture":{
					"index":0
				},
				"metallicFactor":0,
				"roughnessFactor":0.9207483530044556
			}
		}
	],
	"meshes":[
		{
			"name":"Brain_Part_01_Colour_Brain_Texture_0.009",
			"primitives":[
				{
					"attributes":{
						"POSITION":0,
						"NORMAL":1,
						"TEXCOORD_0":2
					},
					"indices":3,
					"material":0
				}
			]
		},
		{
			"name":"Brain_Part_02_Colour_Brain_Texture_0.009",
			"primitives":[
				{
					"attributes":{
						"POSITION":4,
						"NORMAL":5,
						"TEXCOORD_0":6
					},
					"indices":7,
					"material":0
				}
			]
		},
		{
			"name":"Brain_Part_03_Colour_Brain_Texture_0.009",
			"primitives":[
				{
					"attributes":{
						"POSITION":8,
						"NORMAL":9,
						"TEXCOORD_0":10,
						"TEXCOORD_1":11
					},
					"indices":12,
					"material":0
				}
			]
		},
		{
			"name":"Brain_Part_04_Colour_Brain_Texture_0.009",
			"primitives":[
				{
					"attributes":{
						"POSITION":13,
						"NORMAL":14,
						"TEXCOORD_0":15,
						"TEXCOORD_1":16
					},
					"indices":17,
					"material":0
				}
			]
		},
		{
			"name":"Brain_Part_05_Colour_Brain_Texture_0.009",
			"primitives":[
				{
					"attributes":{
						"POSITION":18,
						"NORMAL":19,
						"TEXCOORD_0":20
					},
					"indices":21,
					"material":0
				}
			]
		},
		{
			"name":"Brain_Part_06_Colour_Brain_Texture_0.009",
			"primitives":[
				{
					"attributes":{
						"POSITION":22,
						"NORMAL":23,
						"TEXCOORD_0":24,
						"TEXCOORD_1":25
					},
					"indices":26,
					"material":0
				}
			]
		}
	],
	"textures":[
		{
			"sampler":0,
			"source":0
		}
	],
	"images":[
		{
			"mimeType":"image/jpeg",
			"name":"Colour_Brain_Texture_baseColor",
			"uri":"Colour_Brain_Texture_baseColor.jpg"
		}
	],
	"accessors":[
		{
			"bufferView":0,
			"componentType":5126,
			"count":175,
			"max":[
				0.06697463989257812,
				0.4097471237182617,
				0.19186723232269287
			],
			"min":[
				-0.09192657470703125,
				0.32030296325683594,
				0.09103137254714966
			],
			"type":"VEC3"
		},
		{
			"bufferView":1,
			"componentType":5126,
			"count":175,
			"type":"VEC3"
		},
		{
			"bufferView":2,
			"componentType":5126,
			"count":175,
			"type":"VEC2"
		},
		{
			"bufferView":3,
			"componentType":5123,
			"count":702,
			"type":"SCALAR"
		},
		{
			"bufferView":4,
			"componentType":5126,
			"count":6921,
			"max":[
				0.4107666015625,
				0.51873779296875,
				-0.03578758239746094
			],
			"min":[
				-0.4500274658203125,
				0.143585205078125,
				-0.5016469955444336
			],
			"type":"VEC3"
		},
		{
			"bufferView":5,
			"componentType":5126,
			"count":6921,
			"type":"VEC3"
		},
		{
			"bufferView":6,
			"componentType":5126,
			"count":6921,
			"type":"VEC2"
		},
		{
			"bufferView":7,
			"componentType":5123,
			"count":40710,
			"type":"SCALAR"
		},
		{
			"bufferView":8,
			"componentType":5126,
			"count":929,
			"max":[
				0.024658203125,
				0.8369903564453125,
				0.1965341567993164
			],
			"min":[
				-0.056884765625,
				0.596923828125,
				-0.1811351776123047
			],
			"type":"VEC3"
		},
		{
			"bufferView":9,
			"componentType":5126,
			"count":929,
			"type":"VEC3"
		},
		{
			"bufferView":10,
			"componentType":5126,
			"count":929,
			"type":"VEC2"
		},
		{
			"bufferView":11,
			"componentType":5126,
			"count":929,
			"type":"VEC2"
		},
		{
			"bufferView":12,
			"componentType":5123,
			"count":3660,
			"type":"SCALAR"
		},
		{
			"bufferView":13,
			"componentType":5126,
			"count":19992,
			"max":[
				0.52923583984375,
				1.124481201171875,
				0.6581108570098877
			],
			"min":[
				-0.00640869140625,
				0.2871856689453125,
				-0.658111572265625
			],
			"type":"VEC3"
		},
		{
			"bufferView":14,
			"componentType":5126,
			"count":19992,
			"type":"VEC3"
		},
		{
			"bufferView":15,
			"componentType":5126,
			"count":19992,
			"type":"VEC2"
		},
		{
			"bufferView":16,
			"componentType":5126,
			"count":19992,
			"type":"VEC2"
		},
		{
			"bufferView":17,
			"componentType":5123,
			"count":114666,
			"type":"SCALAR"
		},
		{
			"bufferView":18,
			"componentType":5126,
			"count":1667,
			"max":[
				0.32391357421875,
				0.8172454833984375,
				0.31484556198120117
			],
			"min":[
				-0.3488616943359375,
				0.0005950927734375,
				-0.2395181655883789
			],
			"type":"VEC3"
		},
		{
			"bufferView":19,
			"componentType":5126,
			"count":1667,
			"type":"VEC3"
		},
		{
			"bufferView":20,
			"componentType":5126,
			"count":1667,
			"type":"VEC2"
		},
		{
			"bufferView":21,
			"componentType":5123,
			"count":9705,
			"type":"SCALAR"
		},
		{
			"bufferView":22,
			"componentType":5126,
			"count":19992,
			"max":[
				0.00640869140625,
				1.124481201171875,
				0.6581108570098877
			],
			"min":[
				-0.52923583984375,
				0.2871856689453125,
				-0.658111572265625
			],
			"type":"VEC3"
		},
		{
			"bufferView":23,
			"componentType":5126,
			"count":19992,
			"type":"VEC3"
		},
		{
			"bufferView":24,
			"componentType":5126,
			"count":19992,
			"type":"VEC2"
		},
		{
			"bufferView":25,
			"componentType":5126,
			"count":19992,
			"type":"VEC2"
		},
		{
			"bufferView":26,
			"componentType":5123,
			"count":114666,
			"type":"SCALAR"
		}
	],
	"bufferViews":[
		{
			"buffer":0,
			"byteLength":2100,
			"byteOffset":0,
			"target":34962
		},
		{
			"buffer":0,
			"byteLength":2100,
			"byteOffset":2100,
			"target":34962
		},
		{
			"buffer":0,
			"byteLength":1400,
			"byteOffset":4200,
			"target":34962
		},
		{
			"buffer":0,
			"byteLength":1404,
			"byteOffset":5600,
			"target":34963
		},
		{
			"buffer":0,
			"byteLength":83052,
			"byteOffset":7004,
			"target":34962
		},
		{
			"buffer":0,
			"byteLength":83052,
			"byteOffset":90056,
			"target":34962
		},
		{
			"buffer":0,
			"byteLength":55368,
			"byteOffset":173108,
			"target":34962
		},
		{
			"buffer":0,
			"byteLength":81420,
			"byteOffset":228476,
			"target":34963
		},
		{
			"buffer":0,
			"byteLength":11148,
			"byteOffset":309896,
			"target":34962
		},
		{
			"buffer":0,
			"byteLength":11148,
			"byteOffset":321044,
			"target":34962
		},
		{
			"buffer":0,
			"byteLength":7432,
			"byteOffset":332192,
			"target":34962
		},
		{
			"buffer":0,
			"byteLength":7432,
			"byteOffset":339624,
			"target":34962
		},
		{
			"buffer":0,
			"byteLength":7320,
			"byteOffset":347056,
			"target":34963
		},
		{
			"buffer":0,
			"byteLength":239904,
			"byteOffset":354376,
			"target":34962
		},
		{
			"buffer":0,
			"byteLength":239904,
			"byteOffset":594280,
			"target":34962
		},
		{
			"buffer":0,
			"byteLength":159936,
			"byteOffset":834184,
			"target":34962
		},
		{
			"buffer":0,
			"byteLength":159936,
			"byteOffset":994120,
			"target":34962
		},
		{
			"buffer":0,
			"byteLength":229332,
			"byteOffset":1154056,
			"target":34963
		},
		{
			"buffer":0,
			"byteLength":20004,
			"byteOffset":1383388,
			"target":34962
		},
		{
			"buffer":0,
			"byteLength":20004,
			"byteOffset":1403392,
			"target":34962
		},
		{
			"buffer":0,
			"byteLength":13336,
			"byteOffset":1423396,
			"target":34962
		},
		{
			"buffer":0,
			"byteLength":19410,
			"byteOffset":1436732,
			"target":34963
		},
		{
			"buffer":0,
			"byteLength":239904,
			"byteOffset":1456144,
			"target":34962
		},
		{
			"buffer":0,
			"byteLength":239904,
			"byteOffset":1696048,
			"target":34962
		},
		{
			"buffer":0,
			"byteLength":159936,
			"byteOffset":1935952,
			"target":34962
		},
		{
			"buffer":0,
			"byteLength":159936,
			"byteOffset":2095888,
			"target":34962
		},
		{
			"buffer":0,
			"byteLength":229332,
			"byteOffset":2255824,
			"target":34963
		}
	],
	"samplers":[
		{
			"magFilter":9729,
			"minFilter":9987
		}
	],
	"buffers":[
		{
			"byteLength":2485156,
			"uri":"scene.bin"
		}
	]
}
