{
	"asset":{
		"generator":"Khronos glTF Blender I/O v3.6.27",
		"version":"2.0"
	},
	"scene":0,
	"scenes":[
		{
			"name":"Scene",
			"nodes":[
				9,
				10,
				11,
				12,
				13,
				14,
				15,
				16,
				17,
				18,
				19
			]
		}
	],
	"nodes":[
		{
			"name":"Brain_Part_01"
		},
		{
			"name":"Brain_Part_02"
		},
		{
			"name":"Brain_Part_03"
		},
		{
			"name":"Brain_Part_04"
		},
		{
			"name":"Brain_Part_05"
		},
		{
			"name":"Brain_Part_06"
		},
		{
			"children":[
				0,
				1,
				2,
				3,
				4,
				5
			],
			"name":"Brain"
		},
		{
			"children":[
				6
			],
			"name":"RootNode"
		},
		{
			"children":[
				7
			],
			"name":"BrainColourExport.fbx",
			"rotation":[
				0.70710688829422,
				0,
				0,
				0.7071066498756409
			],
			"scale":[
				0.009999998845160007,
				0.009999998845160007,
				0.009999998845160007
			]
		},
		{
			"children":[
				8
			],
			"name":"Sketchfab_model",
			"rotation":[
				-0.5000001788139343,
				0.4999999403953552,
				0.5000000596046448,
				0.4999999403953552
			],
			"scale":[
				9.478943824768066,
				9.478943824768066,
				9.478943824768066
			],
			"translation":[
				-0.003974579740315676,
				-0.08725497126579285,
				-0.007997715845704079
			]
		},
		{
			"mesh":0,
			"name":"Brain_Part_01_Colour_Brain_Texture_0",
			"rotation":[
				0,
				0.7071068286895752,
				0,
				0.7071067094802856
			],
			"scale":[
				0.06989899277687073,
				0.06989898532629013,
				0.06989899277687073
			],
			"translation":[
				0.0004658292746171355,
				-0.0408434197306633,
				0.006532811094075441
			]
		},
		{
			"mesh":1,
			"name":"Brain_Part_02_Colour_Brain_Texture_0",
			"rotation":[
				0,
				0.7071068286895752,
				0,
				0.7071067094802856
			],
			"scale":[
				0.06989899277687073,
				0.06989898532629013,
				0.06989899277687073
			],
			"translation":[
				0.0004658292746171355,
				-0.0408434197306633,
				0.006532811094075441
			]
		},
		{
			"mesh":2,
			"name":"Brain_Part_03_Colour_Brain_Texture_0",
			"rotation":[
				0,
				0.7071068286895752,
				0,
				0.7071067094802856
			],
			"scale":[
				0.06989899277687073,
				0.06989898532629013,
				0.06989899277687073
			],
			"translation":[
				0.0004658292746171355,
				-0.0408434197306633,
				0.006532811094075441
			]
		},
		{
			"mesh":3,
			"name":"Brain_Part_04_Colour_Brain_Texture_0",
			"rotation":[
				0,
				0.7071068286895752,
				0,
				0.7071067094802856
			],
			"scale":[
				0.06989899277687073,
				0.06989898532629013,
				0.06989899277687073
			],
			"translation":[
				0.0004658292746171355,
				-0.0408434197306633,
				0.006532811094075441
			]
		},
		{
			"mesh":4,
			"name":"Brain_Part_05_Colour_Brain_Texture_0",
			"rotation":[
				0,
				0.7071068286895752,
				0,
				0.7071067094802856
			],
			"scale":[
				0.06989899277687073,
				0.06989898532629013,
				0.06989899277687073
			],
			"translation":[
				0.0004658292746171355,
				-0.0408434197306633,
				0.006532811094075441
			]
		},
		{
			"mesh":5,
			"name":"Brain_Part_06_Colour_Brain_Texture_0",
			"rotation":[
				0,
				0.7071068286895752,
				0,
				0.7071067094802856
			],
			"scale":[
				0.06989899277687073,
				0.06989898532629013,
				0.06989899277687073
			],
			"translation":[
				0.0004658292746171355,
				-0.0408434197306633,
				0.006532811094075441
			]
		},
		{
			"mesh":6,
			"name":"Cylinder.001",
			"rotation":[
				0.6367071270942688,
				-0.6146965026855469,
				-0.29969948530197144,
				0.3562759459018707
			],
			"scale":[
				-0.0003424320893827826,
				-0.03089584968984127,
				-0.00021368611487559974
			],
			"translation":[
				-0.008713391609489918,
				-0.007082499563694,
				0.0519246831536293
			]
		},
		{
			"mesh":7,
			"name":"Text.005",
			"rotation":[
				0.7139220833778381,
				-0.023765970021486282,
				0.024259431287646294,
				0.6994011402130127
			],
			"scale":[
				0.04108516126871109,
				0.041085150092840195,
				0.04108515754342079
			],
			"translation":[
				-0.03941447660326958,
				-0.020167961716651917,
				0.07987044006586075
			]
		},
		{
			"mesh":8,
			"name":"Cylinder.002",
			"rotation":[
				-0.35479259490966797,
				0.4092026948928833,
				-0.6077317595481873,
				0.580807626247406
			],
			"scale":[
				-0.0003552036650944501,
				-0.032048169523477554,
				-0.00022165586415212601
			],
			"translation":[
				0.004313793033361435,
				-0.010304201394319534,
				-0.0375276654958725
			]
		},
		{
			"mesh":9,
			"name":"Text.007",
			"rotation":[
				0.025127381086349487,
				0.6993718147277832,
				-0.7138920426368713,
				0.02461630292236805
			],
			"scale":[
				0.04108516499400139,
				0.0410851426422596,
				0.04108515754342079
			],
			"translation":[
				0.026897098869085312,
				-0.023389672860503197,
				-0.06907500326633453
			]
		}
	],
	"materials":[
		{
			"doubleSided":true,
			"name":"Colour_Brain_Texture.004",
			"pbrMetallicRoughness":{
				"baseColorTexture":{
					"index":0
				},
				"metallicFactor":0,
				"roughnessFactor":0.9207483530044556
			}
		},
		{
			"doubleSided":true,
			"name":"Material.027",
			"pbrMetallicRoughness":{
				"baseColorFactor":[
					0,
					0,
					0,
					1
				],
				"metallicFactor":0,
				"roughnessFactor":0.5
			}
		},
		{
			"doubleSided":true,
			"name":"Material.034",
			"pbrMetallicRoughness":{
				"baseColorFactor":[
					0.06422781944274902,
					0.06422781944274902,
					0.06422781944274902,
					1
				],
				"metallicFactor":0,
				"roughnessFactor":0.5
			}
		}
	],
	"meshes":[
		{
			"name":"Brain_Part_01_Colour_Brain_Texture_0.004",
			"primitives":[
				{
					"attributes":{
						"POSITION":0,
						"NORMAL":1,
						"TEXCOORD_0":2
					},
					"indices":3,
					"material":0
				}
			]
		},
		{
			"name":"Brain_Part_02_Colour_Brain_Texture_0.004",
			"primitives":[
				{
					"attributes":{
						"POSITION":4,
						"NORMAL":5,
						"TEXCOORD_0":6
					},
					"indices":7,
					"material":0
				}
			]
		},
		{
			"name":"Brain_Part_03_Colour_Brain_Texture_0.004",
			"primitives":[
				{
					"attributes":{
						"POSITION":8,
						"NORMAL":9,
						"TEXCOORD_0":10,
						"TEXCOORD_1":11
					},
					"indices":12,
					"material":0
				}
			]
		},
		{
			"name":"Brain_Part_04_Colour_Brain_Texture_0.004",
			"primitives":[
				{
					"attributes":{
						"POSITION":13,
						"NORMAL":14,
						"TEXCOORD_0":15,
						"TEXCOORD_1":16
					},
					"indices":17,
					"material":0
				}
			]
		},
		{
			"name":"Brain_Part_05_Colour_Brain_Texture_0.004",
			"primitives":[
				{
					"attributes":{
						"POSITION":18,
						"NORMAL":19,
						"TEXCOORD_0":20
					},
					"indices":21,
					"material":0
				}
			]
		},
		{
			"name":"Brain_Part_06_Colour_Brain_Texture_0.004",
			"primitives":[
				{
					"attributes":{
						"POSITION":22,
						"NORMAL":23,
						"TEXCOORD_0":24,
						"TEXCOORD_1":25
					},
					"indices":26,
					"material":0
				}
			]
		},
		{
			"name":"Cylinder.005",
			"primitives":[
				{
					"attributes":{
						"POSITION":27,
						"NORMAL":28,
						"TEXCOORD_0":29
					},
					"indices":30,
					"material":1
				}
			]
		},
		{
			"name":"Text.005",
			"primitives":[
				{
					"attributes":{
						"POSITION":31,
						"NORMAL":32,
						"TEXCOORD_0":33
					},
					"indices":34,
					"material":2
				}
			]
		},
		{
			"name":"Cylinder.006",
			"primitives":[
				{
					"attributes":{
						"POSITION":35,
						"NORMAL":36,
						"TEXCOORD_0":37
					},
					"indices":30,
					"material":1
				}
			]
		},
		{
			"name":"Text.006",
			"primitives":[
				{
					"attributes":{
						"POSITION":38,
						"NORMAL":39,
						"TEXCOORD_0":40
					},
					"indices":34,
					"material":2
				}
			]
		}
	],
	"textures":[
		{
			"sampler":0,
			"source":0
		}
	],
	"images":[
		{
			"mimeType":"image/jpeg",
			"name":"Colour_Brain_Texture_baseColor",
			"uri":"Colour_Brain_Texture_baseColor.jpg"
		}
	],
	"accessors":[
		{
			"bufferView":0,
			"componentType":5126,
			"count":175,
			"max":[
				0.06697463989257812,
				0.4097471237182617,
				0.19186723232269287
			],
			"min":[
				-0.09192657470703125,
				0.32030296325683594,
				0.09103137254714966
			],
			"type":"VEC3"
		},
		{
			"bufferView":1,
			"componentType":5126,
			"count":175,
			"type":"VEC3"
		},
		{
			"bufferView":2,
			"componentType":5126,
			"count":175,
			"type":"VEC2"
		},
		{
			"bufferView":3,
			"componentType":5123,
			"count":702,
			"type":"SCALAR"
		},
		{
			"bufferView":4,
			"componentType":5126,
			"count":6921,
			"max":[
				0.4107666015625,
				0.51873779296875,
				-0.03578758239746094
			],
			"min":[
				-0.4500274658203125,
				0.143585205078125,
				-0.5016469955444336
			],
			"type":"VEC3"
		},
		{
			"bufferView":5,
			"componentType":5126,
			"count":6921,
			"type":"VEC3"
		},
		{
			"bufferView":6,
			"componentType":5126,
			"count":6921,
			"type":"VEC2"
		},
		{
			"bufferView":7,
			"componentType":5123,
			"count":40710,
			"type":"SCALAR"
		},
		{
			"bufferView":8,
			"componentType":5126,
			"count":930,
			"max":[
				0.024658203125,
				0.8369903564453125,
				0.1965341567993164
			],
			"min":[
				-0.056884765625,
				0.596923828125,
				-0.1811351776123047
			],
			"type":"VEC3"
		},
		{
			"bufferView":9,
			"componentType":5126,
			"count":930,
			"type":"VEC3"
		},
		{
			"bufferView":10,
			"componentType":5126,
			"count":930,
			"type":"VEC2"
		},
		{
			"bufferView":11,
			"componentType":5126,
			"count":930,
			"type":"VEC2"
		},
		{
			"bufferView":12,
			"componentType":5123,
			"count":3660,
			"type":"SCALAR"
		},
		{
			"bufferView":13,
			"componentType":5126,
			"count":19992,
			"max":[
				0.52923583984375,
				1.124481201171875,
				0.6581108570098877
			],
			"min":[
				-0.00640869140625,
				0.2871856689453125,
				-0.658111572265625
			],
			"type":"VEC3"
		},
		{
			"bufferView":14,
			"componentType":5126,
			"count":19992,
			"type":"VEC3"
		},
		{
			"bufferView":15,
			"componentType":5126,
			"count":19992,
			"type":"VEC2"
		},
		{
			"bufferView":16,
			"componentType":5126,
			"count":19992,
			"type":"VEC2"
		},
		{
			"bufferView":17,
			"componentType":5123,
			"count":114666,
			"type":"SCALAR"
		},
		{
			"bufferView":18,
			"componentType":5126,
			"count":1667,
			"max":[
				0.32391357421875,
				0.8172454833984375,
				0.31484556198120117
			],
			"min":[
				-0.3488616943359375,
				0.0005950927734375,
				-0.2395181655883789
			],
			"type":"VEC3"
		},
		{
			"bufferView":19,
			"componentType":5126,
			"count":1667,
			"type":"VEC3"
		},
		{
			"bufferView":20,
			"componentType":5126,
			"count":1667,
			"type":"VEC2"
		},
		{
			"bufferView":21,
			"componentType":5123,
			"count":9705,
			"type":"SCALAR"
		},
		{
			"bufferView":22,
			"componentType":5126,
			"count":19992,
			"max":[
				0.00640869140625,
				1.124481201171875,
				0.6581108570098877
			],
			"min":[
				-0.52923583984375,
				0.2871856689453125,
				-0.658111572265625
			],
			"type":"VEC3"
		},
		{
			"bufferView":23,
			"componentType":5126,
			"count":19992,
			"type":"VEC3"
		},
		{
			"bufferView":24,
			"componentType":5126,
			"count":19992,
			"type":"VEC2"
		},
		{
			"bufferView":25,
			"componentType":5126,
			"count":19992,
			"type":"VEC2"
		},
		{
			"bufferView":26,
			"componentType":5123,
			"count":114666,
			"type":"SCALAR"
		},
		{
			"bufferView":27,
			"componentType":5126,
			"count":130,
			"max":[
				1,
				1,
				1
			],
			"min":[
				-1,
				-1,
				-1
			],
			"type":"VEC3"
		},
		{
			"bufferView":28,
			"componentType":5126,
			"count":130,
			"type":"VEC3"
		},
		{
			"bufferView":29,
			"componentType":5126,
			"count":130,
			"type":"VEC2"
		},
		{
			"bufferView":30,
			"componentType":5123,
			"count":372,
			"type":"SCALAR"
		},
		{
			"bufferView":31,
			"componentType":5126,
			"count":400,
			"max":[
				0.3152633607387543,
				0,
				0.010765090584754944
			],
			"min":[
				0.05382545292377472,
				0,
				-0.5336409211158752
			],
			"type":"VEC3"
		},
		{
			"bufferView":32,
			"componentType":5126,
			"count":400,
			"type":"VEC3"
		},
		{
			"bufferView":33,
			"componentType":5126,
			"count":400,
			"type":"VEC2"
		},
		{
			"bufferView":34,
			"componentType":5123,
			"count":1188,
			"type":"SCALAR"
		},
		{
			"bufferView":35,
			"componentType":5126,
			"count":130,
			"max":[
				1,
				1,
				1
			],
			"min":[
				-1,
				-1,
				-1
			],
			"type":"VEC3"
		},
		{
			"bufferView":36,
			"componentType":5126,
			"count":130,
			"type":"VEC3"
		},
		{
			"bufferView":37,
			"componentType":5126,
			"count":130,
			"type":"VEC2"
		},
		{
			"bufferView":38,
			"componentType":5126,
			"count":400,
			"max":[
				0.3152633607387543,
				0,
				0.010765090584754944
			],
			"min":[
				0.05382545292377472,
				0,
				-0.5336409211158752
			],
			"type":"VEC3"
		},
		{
			"bufferView":39,
			"componentType":5126,
			"count":400,
			"type":"VEC3"
		},
		{
			"bufferView":40,
			"componentType":5126,
			"count":400,
			"type":"VEC2"
		}
	],
	"bufferViews":[
		{
			"buffer":0,
			"byteLength":2100,
			"byteOffset":0,
			"target":34962
		},
		{
			"buffer":0,
			"byteLength":2100,
			"byteOffset":2100,
			"target":34962
		},
		{
			"buffer":0,
			"byteLength":1400,
			"byteOffset":4200,
			"target":34962
		},
		{
			"buffer":0,
			"byteLength":1404,
			"byteOffset":5600,
			"target":34963
		},
		{
			"buffer":0,
			"byteLength":83052,
			"byteOffset":7004,
			"target":34962
		},
		{
			"buffer":0,
			"byteLength":83052,
			"byteOffset":90056,
			"target":34962
		},
		{
			"buffer":0,
			"byteLength":55368,
			"byteOffset":173108,
			"target":34962
		},
		{
			"buffer":0,
			"byteLength":81420,
			"byteOffset":228476,
			"target":34963
		},
		{
			"buffer":0,
			"byteLength":11160,
			"byteOffset":309896,
			"target":34962
		},
		{
			"buffer":0,
			"byteLength":11160,
			"byteOffset":321056,
			"target":34962
		},
		{
			"buffer":0,
			"byteLength":7440,
			"byteOffset":332216,
			"target":34962
		},
		{
			"buffer":0,
			"byteLength":7440,
			"byteOffset":339656,
			"target":34962
		},
		{
			"buffer":0,
			"byteLength":7320,
			"byteOffset":347096,
			"target":34963
		},
		{
			"buffer":0,
			"byteLength":239904,
			"byteOffset":354416,
			"target":34962
		},
		{
			"buffer":0,
			"byteLength":239904,
			"byteOffset":594320,
			"target":34962
		},
		{
			"buffer":0,
			"byteLength":159936,
			"byteOffset":834224,
			"target":34962
		},
		{
			"buffer":0,
			"byteLength":159936,
			"byteOffset":994160,
			"target":34962
		},
		{
			"buffer":0,
			"byteLength":229332,
			"byteOffset":1154096,
			"target":34963
		},
		{
			"buffer":0,
			"byteLength":20004,
			"byteOffset":1383428,
			"target":34962
		},
		{
			"buffer":0,
			"byteLength":20004,
			"byteOffset":1403432,
			"target":34962
		},
		{
			"buffer":0,
			"byteLength":13336,
			"byteOffset":1423436,
			"target":34962
		},
		{
			"buffer":0,
			"byteLength":19410,
			"byteOffset":1436772,
			"target":34963
		},
		{
			"buffer":0,
			"byteLength":239904,
			"byteOffset":1456184,
			"target":34962
		},
		{
			"buffer":0,
			"byteLength":239904,
			"byteOffset":1696088,
			"target":34962
		},
		{
			"buffer":0,
			"byteLength":159936,
			"byteOffset":1935992,
			"target":34962
		},
		{
			"buffer":0,
			"byteLength":159936,
			"byteOffset":2095928,
			"target":34962
		},
		{
			"buffer":0,
			"byteLength":229332,
			"byteOffset":2255864,
			"target":34963
		},
		{
			"buffer":0,
			"byteLength":1560,
			"byteOffset":2485196,
			"target":34962
		},
		{
			"buffer":0,
			"byteLength":1560,
			"byteOffset":2486756,
			"target":34962
		},
		{
			"buffer":0,
			"byteLength":1040,
			"byteOffset":2488316,
			"target":34962
		},
		{
			"buffer":0,
			"byteLength":744,
			"byteOffset":2489356,
			"target":34963
		},
		{
			"buffer":0,
			"byteLength":4800,
			"byteOffset":2490100,
			"target":34962
		},
		{
			"buffer":0,
			"byteLength":4800,
			"byteOffset":2494900,
			"target":34962
		},
		{
			"buffer":0,
			"byteLength":3200,
			"byteOffset":2499700,
			"target":34962
		},
		{
			"buffer":0,
			"byteLength":2376,
			"byteOffset":2502900,
			"target":34963
		},
		{
			"buffer":0,
			"byteLength":1560,
			"byteOffset":2505276,
			"target":34962
		},
		{
			"buffer":0,
			"byteLength":1560,
			"byteOffset":2506836,
			"target":34962
		},
		{
			"buffer":0,
			"byteLength":1040,
			"byteOffset":2508396,
			"target":34962
		},
		{
			"buffer":0,
			"byteLength":4800,
			"byteOffset":2509436,
			"target":34962
		},
		{
			"buffer":0,
			"byteLength":4800,
			"byteOffset":2514236,
			"target":34962
		},
		{
			"buffer":0,
			"byteLength":3200,
			"byteOffset":2519036,
			"target":34962
		}
	],
	"samplers":[
		{
			"magFilter":9729,
			"minFilter":9987
		}
	],
	"buffers":[
		{
			"byteLength":2522236,
			"uri":"scene.bin"
		}
	]
}
