{
	"asset":{
		"generator":"Khronos glTF Blender I/O v3.6.27",
		"version":"2.0"
	},
	"scene":0,
	"scenes":[
		{
			"name":"Scene",
			"nodes":[
				9
			]
		}
	],
	"nodes":[
		{
			"mesh":0,
			"name":"Brain_low_Brain_0"
		},
		{
			"children":[
				0
			],
			"name":"Brain_low",
			"scale":[
				0.39062491059303284,
				0.39062491059303284,
				0.39062491059303284
			]
		},
		{
			"mesh":1,
			"name":"BrainBack_low_Brain_0"
		},
		{
			"children":[
				2
			],
			"name":"BrainBack_low",
			"scale":[
				0.39062491059303284,
				0.39062491059303284,
				0.39062491059303284
			]
		},
		{
			"mesh":2,
			"name":"BrainStem_low_Brain_0"
		},
		{
			"children":[
				4
			],
			"name":"BrainStem_low",
			"scale":[
				0.39062491059303284,
				0.39062491059303284,
				0.39062491059303284
			]
		},
		{
			"children":[
				1,
				3,
				5
			],
			"name":"Brain",
			"rotation":[
				-0.70710688829422,
				0,
				0,
				0.7071066498756409
			],
			"scale":[
				350,
				349.9999694824219,
				349.9999694824219
			]
		},
		{
			"children":[
				6
			],
			"name":"RootNode"
		},
		{
			"children":[
				7
			],
			"name":"Brain.fbx",
			"rotation":[
				0.70710688829422,
				0,
				0,
				0.7071066498756409
			],
			"scale":[
				0.009999998845160007,
				0.010000000707805157,
				0.010000000707805157
			]
		},
		{
			"children":[
				8
			],
			"name":"Sketchfab_model",
			"rotation":[
				-0.70710688829422,
				0,
				0,
				0.7071066498756409
			],
			"scale":[
				0.899185299873352,
				0.8991854786872864,
				0.8991854786872864
			]
		}
	],
	"materials":[
		{
			"doubleSided":true,
			"name":"Brain",
			"normalTexture":{
				"index":0
			},
			"pbrMetallicRoughness":{
				"baseColorTexture":{
					"index":1
				},
				"metallicRoughnessTexture":{
					"index":2
				}
			}
		}
	],
	"meshes":[
		{
			"name":"Brain_low_Brain_0",
			"primitives":[
				{
					"attributes":{
						"POSITION":0,
						"NORMAL":1,
						"TEXCOORD_0":2
					},
					"indices":3,
					"material":0
				}
			]
		},
		{
			"name":"BrainBack_low_Brain_0",
			"primitives":[
				{
					"attributes":{
						"POSITION":4,
						"NORMAL":5,
						"TEXCOORD_0":6
					},
					"indices":7,
					"material":0
				}
			]
		},
		{
			"name":"BrainStem_low_Brain_0",
			"primitives":[
				{
					"attributes":{
						"POSITION":8,
						"NORMAL":9,
						"TEXCOORD_0":10
					},
					"indices":11,
					"material":0
				}
			]
		}
	],
	"textures":[
		{
			"sampler":0,
			"source":0
		},
		{
			"sampler":0,
			"source":1
		},
		{
			"sampler":0,
			"source":2
		}
	],
	"images":[
		{
			"mimeType":"image/png",
			"name":"Brain_normal",
			"uri":"Brain_normal.png"
		},
		{
			"mimeType":"image/png",
			"name":"Brain_baseColor",
			"uri":"Brain_baseColor.png"
		},
		{
			"mimeType":"image/png",
			"name":"Brain_metallicRoughness",
			"uri":"Brain_metallicRoughness.png"
		}
	],
	"accessors":[
		{
			"bufferView":0,
			"componentType":5126,
			"count":28099,
			"max":[
				0.032837945967912674,
				0.04026167467236519,
				0.025253280997276306
			],
			"min":[
				-0.032837945967912674,
				-0.04206560552120209,
				-0.02620759792625904
			],
			"type":"VEC3"
		},
		{
			"bufferView":1,
			"componentType":5126,
			"count":28099,
			"type":"VEC3"
		},
		{
			"bufferView":2,
			"componentType":5126,
			"count":28099,
			"type":"VEC2"
		},
		{
			"bufferView":3,
			"componentType":5123,
			"count":157812,
			"type":"SCALAR"
		},
		{
			"bufferView":4,
			"componentType":5126,
			"count":9480,
			"max":[
				0.021998805925250053,
				0.03614543750882149,
				-0.00948511902242899
			],
			"min":[
				-0.021998805925250053,
				-0.004957140423357487,
				-0.03375038132071495
			],
			"type":"VEC3"
		},
		{
			"bufferView":5,
			"componentType":5126,
			"count":9480,
			"type":"VEC3"
		},
		{
			"bufferView":6,
			"componentType":5126,
			"count":9480,
			"type":"VEC2"
		},
		{
			"bufferView":7,
			"componentType":5123,
			"count":51744,
			"type":"SCALAR"
		},
		{
			"bufferView":8,
			"componentType":5126,
			"count":4070,
			"max":[
				0.006000656634569168,
				0.024001533165574074,
				-0.018873190507292747
			],
			"min":[
				-0.006000210531055927,
				-0.0017515987856313586,
				-0.047134727239608765
			],
			"type":"VEC3"
		},
		{
			"bufferView":9,
			"componentType":5126,
			"count":4070,
			"type":"VEC3"
		},
		{
			"bufferView":10,
			"componentType":5126,
			"count":4070,
			"type":"VEC2"
		},
		{
			"bufferView":11,
			"componentType":5123,
			"count":22992,
			"type":"SCALAR"
		}
	],
	"bufferViews":[
		{
			"buffer":0,
			"byteLength":337188,
			"byteOffset":0,
			"target":34962
		},
		{
			"buffer":0,
			"byteLength":337188,
			"byteOffset":337188,
			"target":34962
		},
		{
			"buffer":0,
			"byteLength":224792,
			"byteOffset":674376,
			"target":34962
		},
		{
			"buffer":0,
			"byteLength":315624,
			"byteOffset":899168,
			"target":34963
		},
		{
			"buffer":0,
			"byteLength":113760,
			"byteOffset":1214792,
			"target":34962
		},
		{
			"buffer":0,
			"byteLength":113760,
			"byteOffset":1328552,
			"target":34962
		},
		{
			"buffer":0,
			"byteLength":75840,
			"byteOffset":1442312,
			"target":34962
		},
		{
			"buffer":0,
			"byteLength":103488,
			"byteOffset":1518152,
			"target":34963
		},
		{
			"buffer":0,
			"byteLength":48840,
			"byteOffset":1621640,
			"target":34962
		},
		{
			"buffer":0,
			"byteLength":48840,
			"byteOffset":1670480,
			"target":34962
		},
		{
			"buffer":0,
			"byteLength":32560,
			"byteOffset":1719320,
			"target":34962
		},
		{
			"buffer":0,
			"byteLength":45984,
			"byteOffset":1751880,
			"target":34963
		}
	],
	"samplers":[
		{
			"magFilter":9729,
			"minFilter":9987
		}
	],
	"buffers":[
		{
			"byteLength":1797864,
			"uri":"scene.bin"
		}
	]
}
