{
	"asset":{
		"generator":"Khronos glTF Blender I/O v3.6.27",
		"version":"2.0"
	},
	"extensionsUsed":[
		"KHR_materials_emissive_strength"
	],
	"scene":0,
	"scenes":[
		{
			"name":"Scene",
			"nodes":[
				0
			]
		}
	],
	"nodes":[
		{
			"mesh":0,
			"name":"Object001_all_0",
			"rotation":[
				-0.5486838221549988,
				0.4624650776386261,
				0.45355817675590515,
				0.5285424590110779
			],
			"scale":[
				0.001281882170587778,
				0.0012818818213418126,
				0.0012818820541724563
			],
			"translation":[
				-0.006026214919984341,
				-0.011391102336347103,
				-0.007925963029265404
			]
		}
	],
	"materials":[
		{
			"doubleSided":true,
			"emissiveFactor":[
				1,
				1,
				1
			],
			"emissiveTexture":{
				"index":0
			},
			"extensions":{
				"KHR_materials_emissive_strength":{
					"emissiveStrength":1.6304811239242554
				}
			},
			"name":"material",
			"normalTexture":{
				"index":1
			},
			"pbrMetallicRoughness":{
				"baseColorTexture":{
					"index":2
				},
				"metallicFactor":0,
				"roughnessFactor":0.29714375734329224
			}
		}
	],
	"meshes":[
		{
			"name":"Object001_all_0",
			"primitives":[
				{
					"attributes":{
						"POSITION":0,
						"NORMAL":1,
						"TEXCOORD_0":2
					},
					"indices":3,
					"material":0
				}
			]
		}
	],
	"textures":[
		{
			"sampler":0,
			"source":0
		},
		{
			"sampler":0,
			"source":1
		},
		{
			"sampler":0,
			"source":2
		}
	],
	"images":[
		{
			"mimeType":"image/png",
			"name":"material_emissive",
			"uri":"material_emissive.png"
		},
		{
			"mimeType":"image/png",
			"name":"material_normal",
			"uri":"material_normal.png"
		},
		{
			"mimeType":"image/png",
			"name":"material_baseColor",
			"uri":"material_baseColor.png"
		}
	],
	"accessors":[
		{
			"bufferView":0,
			"componentType":5126,
			"count":31487,
			"max":[
				41.339378356933594,
				30.36910057067871,
				86.1270980834961
			],
			"min":[
				-41.34000015258789,
				-30.36910057067871,
				-86.12609100341797
			],
			"type":"VEC3"
		},
		{
			"bufferView":1,
			"componentType":5126,
			"count":31487,
			"type":"VEC3"
		},
		{
			"bufferView":2,
			"componentType":5126,
			"count":31487,
			"type":"VEC2"
		},
		{
			"bufferView":3,
			"componentType":5123,
			"count":152496,
			"type":"SCALAR"
		}
	],
	"bufferViews":[
		{
			"buffer":0,
			"byteLength":377844,
			"byteOffset":0,
			"target":34962
		},
		{
			"buffer":0,
			"byteLength":377844,
			"byteOffset":377844,
			"target":34962
		},
		{
			"buffer":0,
			"byteLength":251896,
			"byteOffset":755688,
			"target":34962
		},
		{
			"buffer":0,
			"byteLength":304992,
			"byteOffset":1007584,
			"target":34963
		}
	],
	"samplers":[
		{
			"magFilter":9729,
			"minFilter":9987
		}
	],
	"buffers":[
		{
			"byteLength":1312576,
			"uri":"scene.bin"
		}
	]
}
