{
  "accessors": [
    {
      "bufferView": 2,
      "componentType": 5126,
      "count": 24083,
      "max": [
        7.605940818786621,
        1.8021128177642822,
        7.549698352813721
      ],
      "min": [
        -6.428185939788818,
        -3.8386361598968506,
        -7.8620524406433105
      ],
      "type": "VEC3"
    },
    {
      "bufferView": 2,
      "byteOffset": 288996,
      "componentType": 5126,
      "count": 24083,
      "max": [
        1.0,
        1.0,
        1.0
      ],
      "min": [
        -1.0,
        -1.0,
        -1.0
      ],
      "type": "VEC3"
    },
    {
      "bufferView": 1,
      "componentType": 5126,
      "count": 24083,
      "max": [
        1.0,
        1.0
      ],
      "min": [
        0.0,
        0.0
      ],
      "type": "VEC2"
    },
    {
      "bufferView": 0,
      "componentType": 5125,
      "count": 125880,
      "type": "SCALAR"
    },
    {
      "bufferView": 2,
      "byteOffset": 577992,
      "componentType": 5126,
      "count": 16285,
      "max": [
        10.009710311889648,
        2.6969971656799316,
        11.037168502807617
      ],
      "min": [
        -8.333410263061523,
        -5.898077487945557,
        -9.709811210632324
      ],
      "type": "VEC3"
    },
    {
      "bufferView": 2,
      "byteOffset": 773412,
      "componentType": 5126,
      "count": 16285,
      "max": [
        1.0,
        1.0,
        1.0
      ],
      "min": [
        -1.0,
        -1.0,
        -1.0
      ],
      "type": "VEC3"
    },
    {
      "bufferView": 1,
      "byteOffset": 192664,
      "componentType": 5126,
      "count": 16285,
      "max": [
        1.0,
        1.0
      ],
      "min": [
        0.0,
        0.0
      ],
      "type": "VEC2"
    },
    {
      "bufferView": 0,
      "byteOffset": 503520,
      "componentType": 5125,
      "count": 87144,
      "type": "SCALAR"
    },
    {
      "bufferView": 2,
      "byteOffset": 968832,
      "componentType": 5126,
      "count": 1677,
      "max": [
        10.023136138916016,
        1.673654317855835,
        -0.3364415168762207
      ],
      "min": [
        7.488831520080566,
        -0.17551666498184204,
        -2.4851393699645996
      ],
      "type": "VEC3"
    },
    {
      "bufferView": 2,
      "byteOffset": 988956,
      "componentType": 5126,
      "count": 1677,
      "max": [
        1.0,
        1.0,
        1.0
      ],
      "min": [
        -1.0,
        -1.0,
        -1.0
      ],
      "type": "VEC3"
    },
    {
      "bufferView": 1,
      "byteOffset": 322944,
      "componentType": 5126,
      "count": 1677,
      "max": [
        1.0,
        1.0
      ],
      "min": [
        0.0,
        0.0
      ],
      "type": "VEC2"
    },
    {
      "bufferView": 0,
      "byteOffset": 852096,
      "componentType": 5125,
      "count": 8832,
      "type": "SCALAR"
    },
    {
      "bufferView": 2,
      "byteOffset": 1009080,
      "componentType": 5126,
      "count": 4036,
      "max": [
        -2.180500030517578,
        1.6432009935379028,
        10.181079864501953
      ],
      "min": [
        -4.699743747711182,
        -4.056038856506348,
        -5.6310648918151855
      ],
      "type": "VEC3"
    },
    {
      "bufferView": 2,
      "byteOffset": 1057512,
      "componentType": 5126,
      "count": 4036,
      "max": [
        1.0,
        1.0,
        1.0
      ],
      "min": [
        -1.0,
        -1.0,
        -1.0
      ],
      "type": "VEC3"
    },
    {
      "bufferView": 1,
      "byteOffset": 336360,
      "componentType": 5126,
      "count": 4036,
      "max": [
        1.0,
        1.0
      ],
      "min": [
        0.0,
        0.0
      ],
      "type": "VEC2"
    },
    {
      "bufferView": 0,
      "byteOffset": 887424,
      "componentType": 5125,
      "count": 21024,
      "type": "SCALAR"
    },
    {
      "bufferView": 3,
      "componentType": 5126,
      "count": 251,
      "max": [
        10.416666984558105
      ],
      "min": [
        0.0
      ],
      "type": "SCALAR"
    },
    {
      "bufferView": 4,
      "componentType": 5126,
      "count": 251,
      "max": [
        0.9998392462730408,
        0.9999995231628418,
        0.5002615451812744,
        0.5005494356155396
      ],
      "min": [
        -1.0,
        -0.9998525381088257,
        0.0,
        2.821299744937278e-07
      ],
      "type": "VEC4"
    }
  ],
  "animations": [
    {
      "channels": [
        {
          "sampler": 0,
          "target": {
            "node": 3,
            "path": "rotation"
          }
        }
      ],
      "name": "SerotoninAction",
      "samplers": [
        {
          "input": 16,
          "interpolation": "LINEAR",
          "output": 17
        }
      ]
    }
  ],
  "asset": {
    "extras": {
      "author": "alamonda (https://sketchfab.com/astagarnia)",
      "license": "CC-BY-NC-4.0 (http://creativecommons.org/licenses/by-nc/4.0/)",
      "source": "https://sketchfab.com/3d-models/serotonin-chemical-structure-e825008423a6421d8615754121650c55",
      "title": "SEROTONIN, chemical structure"
    },
    "generator": "Sketchfab-15.66.0",
    "version": "2.0"
  },
  "bufferViews": [
    {
      "buffer": 0,
      "byteLength": 971520,
      "name": "floatBufferViews",
      "target": 34963
    },
    {
      "buffer": 0,
      "byteLength": 368648,
      "byteOffset": 971520,
      "byteStride": 8,
      "name": "floatBufferViews",
      "target": 34962
    },
    {
      "buffer": 0,
      "byteLength": 1105944,
      "byteOffset": 1340168,
      "byteStride": 12,
      "name": "floatBufferViews",
      "target": 34962
    },
    {
      "buffer": 0,
      "byteLength": 1004,
      "byteOffset": 2446112,
      "name": "floatBufferViews"
    },
    {
      "buffer": 0,
      "byteLength": 4016,
      "byteOffset": 2447116,
      "byteStride": 16,
      "name": "floatBufferViews"
    }
  ],
  "buffers": [
    {
      "byteLength": 2451132,
      "uri": "scene.bin"
    }
  ],
  "extensionsUsed": [
    "KHR_materials_specular"
  ],
  "images": [
    {
      "uri": "textures/Carbon_metallicRoughness.png"
    },
    {
      "uri": "textures/Hydrogen_metallicRoughness.png"
    }
  ],
  "materials": [
    {
      "doubleSided": true,
      "extensions": {
        "KHR_materials_specular": {
          "specularColorFactor": [
            1.0,
            1.0,
            1.0
          ],
          "specularFactor": 0.2673578810838741
        }
      },
      "name": "Carbon",
      "pbrMetallicRoughness": {
        "baseColorFactor": [
          0.0,
          0.0,
          0.0,
          1.0
        ],
        "metallicFactor": 0.7095602817774337,
        "metallicRoughnessTexture": {
          "index": 0
        }
      }
    },
    {
      "doubleSided": true,
      "extensions": {
        "KHR_materials_specular": {
          "specularColorFactor": [
            1.0,
            1.0,
            1.0
          ],
          "specularFactor": 0.18589954411400786
        }
      },
      "name": "Hydrogen",
      "pbrMetallicRoughness": {
        "baseColorFactor": [
          0.3668625645183712,
          0.3668625645183712,
          0.3668625645183712,
          1.0
        ],
        "metallicRoughnessTexture": {
          "index": 1
        }
      }
    },
    {
      "doubleSided": true,
      "name": "Oxygen",
      "pbrMetallicRoughness": {
        "baseColorFactor": [
          1.0,
          0.009723719999999991,
          0.010956699999999929,
          1.0
        ],
        "metallicRoughnessTexture": {
          "index": 1
        }
      }
    },
    {
      "doubleSided": true,
      "name": "Nitrogen",
      "pbrMetallicRoughness": {
        "baseColorFactor": [
          0.002983760000000002,
          0.006040069999999997,
          0.97,
          1.0
        ],
        "metallicRoughnessTexture": {
          "index": 1
        }
      }
    }
  ],
  "meshes": [
    {
      "name": "Object_0",
      "primitives": [
        {
          "attributes": {
            "NORMAL": 1,
            "POSITION": 0,
            "TEXCOORD_0": 2
          },
          "indices": 3,
          "material": 0,
          "mode": 4
        }
      ]
    },
    {
      "name": "Object_1",
      "primitives": [
        {
          "attributes": {
            "NORMAL": 5,
            "POSITION": 4,
            "TEXCOORD_0": 6
          },
          "indices": 7,
          "material": 1,
          "mode": 4
        }
      ]
    },
    {
      "name": "Object_2",
      "primitives": [
        {
          "attributes": {
            "NORMAL": 9,
            "POSITION": 8,
            "TEXCOORD_0": 10
          },
          "indices": 11,
          "material": 2,
          "mode": 4
        }
      ]
    },
    {
      "name": "Object_3",
      "primitives": [
        {
          "attributes": {
            "NORMAL": 13,
            "POSITION": 12,
            "TEXCOORD_0": 14
          },
          "indices": 15,
          "material": 3,
          "mode": 4
        }
      ]
    }
  ],
  "nodes": [
    {
      "children": [
        1
      ],
      "matrix": [
        1.0,
        0.0,
        0.0,
        0.0,
        0.0,
        2.220446049250313e-16,
        -1.0,
        0.0,
        0.0,
        1.0,
        2.220446049250313e-16,
        0.0,
        0.0,
        0.0,
        0.0,
        1.0
      ],
      "name": "Sketchfab_model"
    },
    {
      "children": [
        2
      ],
      "name": "root"
    },
    {
      "children": [
        3
      ],
      "matrix": [
        1.0,
        0.0,
        0.0,
        0.0,
        0.0,
        2.220446049250313e-16,
        1.0,
        0.0,
        0.0,
        -1.0,
        2.220446049250313e-16,
        0.0,
        0.0,
        0.0,
        0.0,
        1.0
      ],
      "name": "GLTF_SceneRootNode"
    },
    {
      "children": [
        4,
        5,
        6,
        7
      ],
      "name": "Serotonin_0",
      "rotation": [
        -1.0,
        0.0,
        0.0,
        4.0133926404450904e-07
      ],
      "scale": [
        0.4147498309612274,
        0.4147498309612274,
        0.4147498309612274
      ],
      "translation": [
        0.07065725326538086,
        0.08168387413024902,
        -0.23560118675231934
      ]
    },
    {
      "mesh": 0,
      "name": "Object_4"
    },
    {
      "mesh": 1,
      "name": "Object_5"
    },
    {
      "mesh": 2,
      "name": "Object_6"
    },
    {
      "mesh": 3,
      "name": "Object_7"
    }
  ],
  "samplers": [
    {
      "magFilter": 9729,
      "minFilter": 9987,
      "wrapS": 10497,
      "wrapT": 10497
    }
  ],
  "scene": 0,
  "scenes": [
    {
      "name": "Sketchfab_Scene",
      "nodes": [
        0
      ]
    }
  ],
  "textures": [
    {
      "sampler": 0,
      "source": 0
    },
    {
      "sampler": 0,
      "source": 1
    }
  ]
}
