{
	"asset":{
		"generator":"Khronos glTF Blender I/O v3.6.27",
		"version":"2.0"
	},
	"scene":0,
	"scenes":[
		{
			"name":"Scene",
			"nodes":[
				0
			]
		}
	],
	"nodes":[
		{
			"mesh":0,
			"name":"Neuron__0",
			"rotation":[
				-0.38592275977134705,
				0.6963498592376709,
				-0.1449020802974701,
				0.5875065922737122
			],
			"scale":[
				0.00020620212308131158,
				0.00020620221039280295,
				0.0002062022831523791
			],
			"translation":[
				-0.014490822330117226,
				0.01552370935678482,
				0.021530114114284515
			]
		}
	],
	"materials":[
		{
			"doubleSided":true,
			"name":"RootNode",
			"pbrMetallicRoughness":{
				"metallicFactor":0,
				"roughnessFactor":0.9200000166893005
			}
		}
	],
	"meshes":[
		{
			"name":"Neuron__0",
			"primitives":[
				{
					"attributes":{
						"POSITION":0,
						"NORMAL":1,
						"TEXCOORD_0":2
					},
					"indices":3,
					"material":0
				}
			]
		}
	],
	"accessors":[
		{
			"bufferView":0,
			"componentType":5126,
			"count":10985,
			"max":[
				229.48269653320312,
				258.1391906738281,
				310.91387939453125
			],
			"min":[
				-203.94464111328125,
				-308.26129150390625,
				-110.10747528076172
			],
			"type":"VEC3"
		},
		{
			"bufferView":1,
			"componentType":5126,
			"count":10985,
			"type":"VEC3"
		},
		{
			"bufferView":2,
			"componentType":5126,
			"count":10985,
			"type":"VEC2"
		},
		{
			"bufferView":3,
			"componentType":5123,
			"count":12102,
			"type":"SCALAR"
		}
	],
	"bufferViews":[
		{
			"buffer":0,
			"byteLength":131820,
			"byteOffset":0,
			"target":34962
		},
		{
			"buffer":0,
			"byteLength":131820,
			"byteOffset":131820,
			"target":34962
		},
		{
			"buffer":0,
			"byteLength":87880,
			"byteOffset":263640,
			"target":34962
		},
		{
			"buffer":0,
			"byteLength":24204,
			"byteOffset":351520,
			"target":34963
		}
	],
	"buffers":[
		{
			"byteLength":375724,
			"uri":"scene.bin"
		}
	]
}
