{
	"asset":{
		"generator":"Khronos glTF Blender I/O v3.6.27",
		"version":"2.0"
	},
	"scene":0,
	"scenes":[
		{
			"name":"Scene",
			"nodes":[
				0
			]
		}
	],
	"nodes":[
		{
			"mesh":0,
			"name":"Neuron__0",
			"rotation":[
				-0.8042992353439331,
				-0.2852698564529419,
				-0.17424964904785156,
				0.49128493666648865
			],
			"scale":[
				0.0002969476336147636,
				0.00029694769182242453,
				0.00029694769182242453
			],
			"translation":[
				5.331540887709707e-05,
				-0.018746275454759598,
				-2.7615353701548884e-06
			]
		}
	],
	"materials":[
		{
			"doubleSided":true,
			"name":"RootNode",
			"pbrMetallicRoughness":{
				"metallicFactor":0,
				"roughnessFactor":0.9200000166893005
			}
		}
	],
	"meshes":[
		{
			"name":"Neuron__0",
			"primitives":[
				{
					"attributes":{
						"POSITION":0,
						"NORMAL":1,
						"TEXCOORD_0":2
					},
					"indices":3,
					"material":0
				}
			]
		}
	],
	"accessors":[
		{
			"bufferView":0,
			"componentType":5126,
			"count":10980,
			"max":[
				229.48269653320312,
				258.1391906738281,
				310.91387939453125
			],
			"min":[
				-203.94464111328125,
				-308.26129150390625,
				-110.10747528076172
			],
			"type":"VEC3"
		},
		{
			"bufferView":1,
			"componentType":5126,
			"count":10980,
			"type":"VEC3"
		},
		{
			"bufferView":2,
			"componentType":5126,
			"count":10980,
			"type":"VEC2"
		},
		{
			"bufferView":3,
			"componentType":5123,
			"count":12102,
			"type":"SCALAR"
		}
	],
	"bufferViews":[
		{
			"buffer":0,
			"byteLength":131760,
			"byteOffset":0,
			"target":34962
		},
		{
			"buffer":0,
			"byteLength":131760,
			"byteOffset":131760,
			"target":34962
		},
		{
			"buffer":0,
			"byteLength":87840,
			"byteOffset":263520,
			"target":34962
		},
		{
			"buffer":0,
			"byteLength":24204,
			"byteOffset":351360,
			"target":34963
		}
	],
	"buffers":[
		{
			"byteLength":375564,
			"uri":"scene.bin"
		}
	]
}
