{
	"asset":{
		"generator":"Khronos glTF Blender I/O v3.6.27",
		"version":"2.0"
	},
	"scene":0,
	"scenes":[
		{
			"name":"Scene",
			"nodes":[
				8
			]
		}
	],
	"nodes":[
		{
			"mesh":0,
			"name":"Object_2"
		},
		{
			"mesh":1,
			"name":"Object_3"
		},
		{
			"mesh":2,
			"name":"Object_4.001"
		},
		{
			"mesh":3,
			"name":"Object_5.001"
		},
		{
			"mesh":4,
			"name":"Object_6.001"
		},
		{
			"mesh":5,
			"name":"Object_7.001"
		},
		{
			"mesh":6,
			"name":"Object_8"
		},
		{
			"children":[
				0,
				1,
				2,
				3,
				4,
				5,
				6
			],
			"name":"Dopamine.obj.cleaner.materialmerger.gles"
		},
		{
			"children":[
				7
			],
			"name":"Sketchfab_model.003",
			"rotation":[
				0.4295656979084015,
				-0.5142293572425842,
				0.5226772427558899,
				0.5271146893501282
			],
			"scale":[
				0.01345573365688324,
				0.013455735519528389,
				0.01345573365688324
			],
			"translation":[
				0,
				0.009544060565531254,
				0
			]
		}
	],
	"materials":[
		{
			"doubleSided":true,
			"name":"k3050f8",
			"pbrMetallicRoughness":{
				"baseColorFactor":[
					0.19099999964237213,
					0.3160000145435333,
					0.9729999899864197,
					1
				],
				"metallicFactor":0,
				"roughnessFactor":0.910672128200531
			}
		},
		{
			"doubleSided":true,
			"name":"k909090",
			"pbrMetallicRoughness":{
				"baseColorFactor":[
					0.5659999847412109,
					0.5659999847412109,
					0.5659999847412109,
					1
				],
				"metallicFactor":0,
				"roughnessFactor":0.910672128200531
			}
		},
		{
			"doubleSided":true,
			"name":"kff0d0d",
			"pbrMetallicRoughness":{
				"baseColorFactor":[
					1,
					0.054999999701976776,
					0.054999999701976776,
					1
				],
				"metallicFactor":0,
				"roughnessFactor":0.910672128200531
			}
		},
		{
			"doubleSided":true,
			"name":"kffffff",
			"pbrMetallicRoughness":{
				"metallicFactor":0,
				"roughnessFactor":0.910672128200531
			}
		}
	],
	"meshes":[
		{
			"name":"Object_0.010",
			"primitives":[
				{
					"attributes":{
						"POSITION":0,
						"NORMAL":1
					},
					"indices":2,
					"material":0
				}
			]
		},
		{
			"name":"Object_1.010",
			"primitives":[
				{
					"attributes":{
						"POSITION":3,
						"NORMAL":4
					},
					"indices":5,
					"material":1
				}
			]
		},
		{
			"name":"Object_2.010",
			"primitives":[
				{
					"attributes":{
						"POSITION":6,
						"NORMAL":7
					},
					"indices":8,
					"material":1
				}
			]
		},
		{
			"name":"Object_3.010",
			"primitives":[
				{
					"attributes":{
						"POSITION":9,
						"NORMAL":10
					},
					"indices":11,
					"material":1
				}
			]
		},
		{
			"name":"Object_4.010",
			"primitives":[
				{
					"attributes":{
						"POSITION":12,
						"NORMAL":13
					},
					"indices":14,
					"material":2
				}
			]
		},
		{
			"name":"Object_5.010",
			"primitives":[
				{
					"attributes":{
						"POSITION":15,
						"NORMAL":16
					},
					"indices":17,
					"material":3
				}
			]
		},
		{
			"name":"Object_6.010",
			"primitives":[
				{
					"attributes":{
						"POSITION":18,
						"NORMAL":19
					},
					"indices":20,
					"material":3
				}
			]
		}
	],
	"accessors":[
		{
			"bufferView":0,
			"componentType":5126,
			"count":1500,
			"max":[
				4.7646002769470215,
				0.07016532868146896,
				0.762650191783905
			],
			"min":[
				3.6635215282440186,
				-0.7009999752044678,
				-0.2276066690683365
			],
			"type":"VEC3"
		},
		{
			"bufferView":1,
			"componentType":5126,
			"count":1500,
			"type":"VEC3"
		},
		{
			"bufferView":2,
			"componentType":5123,
			"count":8328,
			"type":"SCALAR"
		},
		{
			"bufferView":3,
			"componentType":5126,
			"count":8346,
			"max":[
				3.137699842453003,
				0.5364999771118164,
				1.248925805091858
			],
			"min":[
				-1.6157000064849854,
				-0.7803999781608582,
				-1.9363861083984375
			],
			"type":"VEC3"
		},
		{
			"bufferView":4,
			"componentType":5126,
			"count":8346,
			"type":"VEC3"
		},
		{
			"bufferView":5,
			"componentType":5123,
			"count":49920,
			"type":"SCALAR"
		},
		{
			"bufferView":6,
			"componentType":5126,
			"count":6420,
			"max":[
				3.137699842453003,
				0.8127999901771545,
				1.1021568775177002
			],
			"min":[
				-2.384138822555542,
				-0.7803999781608582,
				-1.3448349237442017
			],
			"type":"VEC3"
		},
		{
			"bufferView":7,
			"componentType":5126,
			"count":6420,
			"type":"VEC3"
		},
		{
			"bufferView":8,
			"componentType":5123,
			"count":38400,
			"type":"SCALAR"
		},
		{
			"bufferView":9,
			"componentType":5126,
			"count":7932,
			"max":[
				3.730778455734253,
				1.1023963689804077,
				1.5326958894729614
			],
			"min":[
				-2.7220816612243652,
				-1.0646978616714478,
				-2.1141788959503174
			],
			"type":"VEC3"
		},
		{
			"bufferView":10,
			"componentType":5126,
			"count":7932,
			"type":"VEC3"
		},
		{
			"bufferView":11,
			"componentType":5123,
			"count":42936,
			"type":"SCALAR"
		},
		{
			"bufferView":12,
			"componentType":5126,
			"count":2856,
			"max":[
				-1.7284586429595947,
				0.2946999967098236,
				2.3120999336242676
			],
			"min":[
				-3.705199956893921,
				-0.736299991607666,
				-1.0689849853515625
			],
			"type":"VEC3"
		},
		{
			"bufferView":13,
			"componentType":5126,
			"count":2856,
			"type":"VEC3"
		},
		{
			"bufferView":14,
			"componentType":5123,
			"count":16224,
			"type":"SCALAR"
		},
		{
			"bufferView":15,
			"componentType":5126,
			"count":9630,
			"max":[
				4.989199638366699,
				1.4507999420166016,
				2.1173999309539795
			],
			"min":[
				-3.8169000148773193,
				-1.4055999517440796,
				-2.802600145339966
			],
			"type":"VEC3"
		},
		{
			"bufferView":16,
			"componentType":5126,
			"count":9630,
			"type":"VEC3"
		},
		{
			"bufferView":17,
			"componentType":5123,
			"count":57600,
			"type":"SCALAR"
		},
		{
			"bufferView":18,
			"componentType":5126,
			"count":5286,
			"max":[
				4.8781046867370605,
				1.552299976348877,
				2.218899965286255
			],
			"min":[
				-3.715399980545044,
				-1.507099986076355,
				-2.61067271232605
			],
			"type":"VEC3"
		},
		{
			"bufferView":19,
			"componentType":5126,
			"count":5286,
			"type":"VEC3"
		},
		{
			"bufferView":20,
			"componentType":5123,
			"count":29256,
			"type":"SCALAR"
		}
	],
	"bufferViews":[
		{
			"buffer":0,
			"byteLength":18000,
			"byteOffset":0,
			"target":34962
		},
		{
			"buffer":0,
			"byteLength":18000,
			"byteOffset":18000,
			"target":34962
		},
		{
			"buffer":0,
			"byteLength":16656,
			"byteOffset":36000,
			"target":34963
		},
		{
			"buffer":0,
			"byteLength":100152,
			"byteOffset":52656,
			"target":34962
		},
		{
			"buffer":0,
			"byteLength":100152,
			"byteOffset":152808,
			"target":34962
		},
		{
			"buffer":0,
			"byteLength":99840,
			"byteOffset":252960,
			"target":34963
		},
		{
			"buffer":0,
			"byteLength":77040,
			"byteOffset":352800,
			"target":34962
		},
		{
			"buffer":0,
			"byteLength":77040,
			"byteOffset":429840,
			"target":34962
		},
		{
			"buffer":0,
			"byteLength":76800,
			"byteOffset":506880,
			"target":34963
		},
		{
			"buffer":0,
			"byteLength":95184,
			"byteOffset":583680,
			"target":34962
		},
		{
			"buffer":0,
			"byteLength":95184,
			"byteOffset":678864,
			"target":34962
		},
		{
			"buffer":0,
			"byteLength":85872,
			"byteOffset":774048,
			"target":34963
		},
		{
			"buffer":0,
			"byteLength":34272,
			"byteOffset":859920,
			"target":34962
		},
		{
			"buffer":0,
			"byteLength":34272,
			"byteOffset":894192,
			"target":34962
		},
		{
			"buffer":0,
			"byteLength":32448,
			"byteOffset":928464,
			"target":34963
		},
		{
			"buffer":0,
			"byteLength":115560,
			"byteOffset":960912,
			"target":34962
		},
		{
			"buffer":0,
			"byteLength":115560,
			"byteOffset":1076472,
			"target":34962
		},
		{
			"buffer":0,
			"byteLength":115200,
			"byteOffset":1192032,
			"target":34963
		},
		{
			"buffer":0,
			"byteLength":63432,
			"byteOffset":1307232,
			"target":34962
		},
		{
			"buffer":0,
			"byteLength":63432,
			"byteOffset":1370664,
			"target":34962
		},
		{
			"buffer":0,
			"byteLength":58512,
			"byteOffset":1434096,
			"target":34963
		}
	],
	"buffers":[
		{
			"byteLength":1492608,
			"uri":"scene.bin"
		}
	]
}
