{
	"asset":{
		"generator":"Khronos glTF Blender I/O v3.6.27",
		"version":"2.0"
	},
	"scene":0,
	"scenes":[
		{
			"name":"Scene",
			"nodes":[
				15,
				16,
				17
			]
		}
	],
	"nodes":[
		{
			"mesh":0,
			"name":"Brain_Part_01_Colour_Brain_Texture_0"
		},
		{
			"children":[
				0
			],
			"name":"Brain_Part_01"
		},
		{
			"mesh":1,
			"name":"Brain_Part_02_Colour_Brain_Texture_0"
		},
		{
			"children":[
				2
			],
			"name":"Brain_Part_02"
		},
		{
			"mesh":2,
			"name":"Brain_Part_03_Colour_Brain_Texture_0"
		},
		{
			"children":[
				4
			],
			"name":"Brain_Part_03"
		},
		{
			"mesh":3,
			"name":"Brain_Part_04_Colour_Brain_Texture_0"
		},
		{
			"children":[
				6
			],
			"name":"Brain_Part_04"
		},
		{
			"mesh":4,
			"name":"Brain_Part_05_Colour_Brain_Texture_0"
		},
		{
			"children":[
				8
			],
			"name":"Brain_Part_05"
		},
		{
			"mesh":5,
			"name":"Brain_Part_06_Colour_Brain_Texture_0"
		},
		{
			"children":[
				10
			],
			"name":"Brain_Part_06"
		},
		{
			"children":[
				1,
				3,
				5,
				7,
				9,
				11
			],
			"name":"Brain"
		},
		{
			"children":[
				12
			],
			"name":"RootNode"
		},
		{
			"children":[
				13
			],
			"name":"BrainColourExport.fbx",
			"rotation":[
				0.70710688829422,
				0,
				0,
				0.7071066498756409
			],
			"scale":[
				0.009999999776482582,
				0.009999998845160007,
				0.009999998845160007
			]
		},
		{
			"children":[
				14
			],
			"name":"Sketchfab_model",
			"rotation":[
				-0.1477920114994049,
				0.14779208600521088,
				0.6914893984794617,
				0.6914892792701721
			],
			"scale":[
				12.33366584777832,
				12.333662986755371,
				12.333669662475586
			],
			"translation":[
				-0.027145199477672577,
				-0.038536690175533295,
				-0.1301186978816986
			]
		},
		{
			"mesh":6,
			"name":"Cylinder",
			"rotation":[
				-0.20760121941566467,
				-0.8132004141807556,
				-0.5268017649650574,
				0.13448676466941833
			],
			"scale":[
				-0.00042509479681029916,
				-0.05905598774552345,
				-1.0692877694395975e-09
			],
			"translation":[
				-0.015280045568943024,
				-0.007149705197662115,
				0.016128312796354294
			]
		},
		{
			"mesh":7,
			"name":"Text",
			"rotation":[
				0.7143341302871704,
				0,
				0,
				0.6998047828674316
			],
			"scale":[
				0.028469478711485863,
				0.028469478711485863,
				0.028469478711485863
			],
			"translation":[
				0.009958663955330849,
				0.014421213418245316,
				0.065122589468956
			]
		}
	],
	"materials":[
		{
			"doubleSided":true,
			"name":"Colour_Brain_Texture.017",
			"pbrMetallicRoughness":{
				"baseColorTexture":{
					"index":0
				},
				"metallicFactor":0,
				"roughnessFactor":0.9207483530044556
			}
		},
		{
			"doubleSided":true,
			"name":"Material.031",
			"pbrMetallicRoughness":{
				"baseColorFactor":[
					0,
					0,
					0,
					1
				],
				"metallicFactor":0,
				"roughnessFactor":0.5
			}
		},
		{
			"doubleSided":true,
			"name":"Material.032",
			"pbrMetallicRoughness":{
				"baseColorFactor":[
					0.06422781944274902,
					0.06422781944274902,
					0.06422781944274902,
					1
				],
				"metallicFactor":0,
				"roughnessFactor":0.5
			}
		}
	],
	"meshes":[
		{
			"name":"Brain_Part_01_Colour_Brain_Texture_0.017",
			"primitives":[
				{
					"attributes":{
						"POSITION":0,
						"NORMAL":1,
						"TEXCOORD_0":2
					},
					"indices":3,
					"material":0
				}
			]
		},
		{
			"name":"Brain_Part_02_Colour_Brain_Texture_0.017",
			"primitives":[
				{
					"attributes":{
						"POSITION":4,
						"NORMAL":5,
						"TEXCOORD_0":6
					},
					"indices":7,
					"material":0
				}
			]
		},
		{
			"name":"Brain_Part_03_Colour_Brain_Texture_0.017",
			"primitives":[
				{
					"attributes":{
						"POSITION":8,
						"NORMAL":9,
						"TEXCOORD_0":10,
						"TEXCOORD_1":11
					},
					"indices":12,
					"material":0
				}
			]
		},
		{
			"name":"Brain_Part_04_Colour_Brain_Texture_0.017",
			"primitives":[
				{
					"attributes":{
						"POSITION":13,
						"NORMAL":14,
						"TEXCOORD_0":15,
						"TEXCOORD_1":16
					},
					"indices":17,
					"material":0
				}
			]
		},
		{
			"name":"Brain_Part_05_Colour_Brain_Texture_0.017",
			"primitives":[
				{
					"attributes":{
						"POSITION":18,
						"NORMAL":19,
						"TEXCOORD_0":20
					},
					"indices":21,
					"material":0
				}
			]
		},
		{
			"name":"Brain_Part_06_Colour_Brain_Texture_0.017",
			"primitives":[
				{
					"attributes":{
						"POSITION":22,
						"NORMAL":23,
						"TEXCOORD_0":24,
						"TEXCOORD_1":25
					},
					"indices":26,
					"material":0
				}
			]
		},
		{
			"name":"Cylinder.051",
			"primitives":[
				{
					"attributes":{
						"POSITION":27,
						"NORMAL":28,
						"TEXCOORD_0":29
					},
					"indices":30,
					"material":1
				}
			]
		},
		{
			"name":"Text.014",
			"primitives":[
				{
					"attributes":{
						"POSITION":31,
						"NORMAL":32,
						"TEXCOORD_0":33
					},
					"indices":34,
					"material":2
				}
			]
		}
	],
	"textures":[
		{
			"sampler":0,
			"source":0
		}
	],
	"images":[
		{
			"mimeType":"image/jpeg",
			"name":"Colour_Brain_Texture_baseColor",
			"uri":"Colour_Brain_Texture_baseColor.jpg"
		}
	],
	"accessors":[
		{
			"bufferView":0,
			"componentType":5126,
			"count":175,
			"max":[
				0.06697463989257812,
				0.4097471237182617,
				0.19186723232269287
			],
			"min":[
				-0.09192657470703125,
				0.32030296325683594,
				0.09103137254714966
			],
			"type":"VEC3"
		},
		{
			"bufferView":1,
			"componentType":5126,
			"count":175,
			"type":"VEC3"
		},
		{
			"bufferView":2,
			"componentType":5126,
			"count":175,
			"type":"VEC2"
		},
		{
			"bufferView":3,
			"componentType":5123,
			"count":702,
			"type":"SCALAR"
		},
		{
			"bufferView":4,
			"componentType":5126,
			"count":6921,
			"max":[
				0.4107666015625,
				0.51873779296875,
				-0.03578758239746094
			],
			"min":[
				-0.4500274658203125,
				0.143585205078125,
				-0.5016469955444336
			],
			"type":"VEC3"
		},
		{
			"bufferView":5,
			"componentType":5126,
			"count":6921,
			"type":"VEC3"
		},
		{
			"bufferView":6,
			"componentType":5126,
			"count":6921,
			"type":"VEC2"
		},
		{
			"bufferView":7,
			"componentType":5123,
			"count":40710,
			"type":"SCALAR"
		},
		{
			"bufferView":8,
			"componentType":5126,
			"count":930,
			"max":[
				0.024658203125,
				0.8369903564453125,
				0.1965341567993164
			],
			"min":[
				-0.056884765625,
				0.596923828125,
				-0.1811351776123047
			],
			"type":"VEC3"
		},
		{
			"bufferView":9,
			"componentType":5126,
			"count":930,
			"type":"VEC3"
		},
		{
			"bufferView":10,
			"componentType":5126,
			"count":930,
			"type":"VEC2"
		},
		{
			"bufferView":11,
			"componentType":5126,
			"count":930,
			"type":"VEC2"
		},
		{
			"bufferView":12,
			"componentType":5123,
			"count":3660,
			"type":"SCALAR"
		},
		{
			"bufferView":13,
			"componentType":5126,
			"count":19992,
			"max":[
				0.52923583984375,
				1.124481201171875,
				0.6581108570098877
			],
			"min":[
				-0.00640869140625,
				0.2871856689453125,
				-0.658111572265625
			],
			"type":"VEC3"
		},
		{
			"bufferView":14,
			"componentType":5126,
			"count":19992,
			"type":"VEC3"
		},
		{
			"bufferView":15,
			"componentType":5126,
			"count":19992,
			"type":"VEC2"
		},
		{
			"bufferView":16,
			"componentType":5126,
			"count":19992,
			"type":"VEC2"
		},
		{
			"bufferView":17,
			"componentType":5123,
			"count":114666,
			"type":"SCALAR"
		},
		{
			"bufferView":18,
			"componentType":5126,
			"count":1667,
			"max":[
				0.32391357421875,
				0.8172454833984375,
				0.31484556198120117
			],
			"min":[
				-0.3488616943359375,
				0.0005950927734375,
				-0.2395181655883789
			],
			"type":"VEC3"
		},
		{
			"bufferView":19,
			"componentType":5126,
			"count":1667,
			"type":"VEC3"
		},
		{
			"bufferView":20,
			"componentType":5126,
			"count":1667,
			"type":"VEC2"
		},
		{
			"bufferView":21,
			"componentType":5123,
			"count":9705,
			"type":"SCALAR"
		},
		{
			"bufferView":22,
			"componentType":5126,
			"count":19992,
			"max":[
				0.00640869140625,
				1.124481201171875,
				0.6581108570098877
			],
			"min":[
				-0.52923583984375,
				0.2871856689453125,
				-0.658111572265625
			],
			"type":"VEC3"
		},
		{
			"bufferView":23,
			"componentType":5126,
			"count":19992,
			"type":"VEC3"
		},
		{
			"bufferView":24,
			"componentType":5126,
			"count":19992,
			"type":"VEC2"
		},
		{
			"bufferView":25,
			"componentType":5126,
			"count":19992,
			"type":"VEC2"
		},
		{
			"bufferView":26,
			"componentType":5123,
			"count":114666,
			"type":"SCALAR"
		},
		{
			"bufferView":27,
			"componentType":5126,
			"count":130,
			"max":[
				1,
				1,
				1
			],
			"min":[
				-1,
				-1,
				-1
			],
			"type":"VEC3"
		},
		{
			"bufferView":28,
			"componentType":5126,
			"count":130,
			"type":"VEC3"
		},
		{
			"bufferView":29,
			"componentType":5126,
			"count":130,
			"type":"VEC2"
		},
		{
			"bufferView":30,
			"componentType":5123,
			"count":372,
			"type":"SCALAR"
		},
		{
			"bufferView":31,
			"componentType":5126,
			"count":400,
			"max":[
				0.3152633607387543,
				0,
				0.010765090584754944
			],
			"min":[
				0.05382545292377472,
				0,
				-0.5336409211158752
			],
			"type":"VEC3"
		},
		{
			"bufferView":32,
			"componentType":5126,
			"count":400,
			"type":"VEC3"
		},
		{
			"bufferView":33,
			"componentType":5126,
			"count":400,
			"type":"VEC2"
		},
		{
			"bufferView":34,
			"componentType":5123,
			"count":1188,
			"type":"SCALAR"
		}
	],
	"bufferViews":[
		{
			"buffer":0,
			"byteLength":2100,
			"byteOffset":0,
			"target":34962
		},
		{
			"buffer":0,
			"byteLength":2100,
			"byteOffset":2100,
			"target":34962
		},
		{
			"buffer":0,
			"byteLength":1400,
			"byteOffset":4200,
			"target":34962
		},
		{
			"buffer":0,
			"byteLength":1404,
			"byteOffset":5600,
			"target":34963
		},
		{
			"buffer":0,
			"byteLength":83052,
			"byteOffset":7004,
			"target":34962
		},
		{
			"buffer":0,
			"byteLength":83052,
			"byteOffset":90056,
			"target":34962
		},
		{
			"buffer":0,
			"byteLength":55368,
			"byteOffset":173108,
			"target":34962
		},
		{
			"buffer":0,
			"byteLength":81420,
			"byteOffset":228476,
			"target":34963
		},
		{
			"buffer":0,
			"byteLength":11160,
			"byteOffset":309896,
			"target":34962
		},
		{
			"buffer":0,
			"byteLength":11160,
			"byteOffset":321056,
			"target":34962
		},
		{
			"buffer":0,
			"byteLength":7440,
			"byteOffset":332216,
			"target":34962
		},
		{
			"buffer":0,
			"byteLength":7440,
			"byteOffset":339656,
			"target":34962
		},
		{
			"buffer":0,
			"byteLength":7320,
			"byteOffset":347096,
			"target":34963
		},
		{
			"buffer":0,
			"byteLength":239904,
			"byteOffset":354416,
			"target":34962
		},
		{
			"buffer":0,
			"byteLength":239904,
			"byteOffset":594320,
			"target":34962
		},
		{
			"buffer":0,
			"byteLength":159936,
			"byteOffset":834224,
			"target":34962
		},
		{
			"buffer":0,
			"byteLength":159936,
			"byteOffset":994160,
			"target":34962
		},
		{
			"buffer":0,
			"byteLength":229332,
			"byteOffset":1154096,
			"target":34963
		},
		{
			"buffer":0,
			"byteLength":20004,
			"byteOffset":1383428,
			"target":34962
		},
		{
			"buffer":0,
			"byteLength":20004,
			"byteOffset":1403432,
			"target":34962
		},
		{
			"buffer":0,
			"byteLength":13336,
			"byteOffset":1423436,
			"target":34962
		},
		{
			"buffer":0,
			"byteLength":19410,
			"byteOffset":1436772,
			"target":34963
		},
		{
			"buffer":0,
			"byteLength":239904,
			"byteOffset":1456184,
			"target":34962
		},
		{
			"buffer":0,
			"byteLength":239904,
			"byteOffset":1696088,
			"target":34962
		},
		{
			"buffer":0,
			"byteLength":159936,
			"byteOffset":1935992,
			"target":34962
		},
		{
			"buffer":0,
			"byteLength":159936,
			"byteOffset":2095928,
			"target":34962
		},
		{
			"buffer":0,
			"byteLength":229332,
			"byteOffset":2255864,
			"target":34963
		},
		{
			"buffer":0,
			"byteLength":1560,
			"byteOffset":2485196,
			"target":34962
		},
		{
			"buffer":0,
			"byteLength":1560,
			"byteOffset":2486756,
			"target":34962
		},
		{
			"buffer":0,
			"byteLength":1040,
			"byteOffset":2488316,
			"target":34962
		},
		{
			"buffer":0,
			"byteLength":744,
			"byteOffset":2489356,
			"target":34963
		},
		{
			"buffer":0,
			"byteLength":4800,
			"byteOffset":2490100,
			"target":34962
		},
		{
			"buffer":0,
			"byteLength":4800,
			"byteOffset":2494900,
			"target":34962
		},
		{
			"buffer":0,
			"byteLength":3200,
			"byteOffset":2499700,
			"target":34962
		},
		{
			"buffer":0,
			"byteLength":2376,
			"byteOffset":2502900,
			"target":34963
		}
	],
	"samplers":[
		{
			"magFilter":9729,
			"minFilter":9987
		}
	],
	"buffers":[
		{
			"byteLength":2505276,
			"uri":"scene.bin"
		}
	]
}
