{
	"asset":{
		"generator":"Khronos glTF Blender I/O v3.6.27",
		"version":"2.0"
	},
	"scene":0,
	"scenes":[
		{
			"name":"Scene",
			"nodes":[
				0,
				1,
				2
			]
		}
	],
	"nodes":[
		{
			"mesh":0,
			"name":"Cylinder",
			"rotation":[
				-0.5785882472991943,
				0.6335216164588928,
				0.18987198173999786,
				0.47732019424438477
			],
			"scale":[
				-0.0004135104827582836,
				-0.025184450671076775,
				-1.0637656311374144e-09
			],
			"translation":[
				0.010223198682069778,
				0.053834546357393265,
				0.008469576016068459
			]
		},
		{
			"mesh":1,
			"name":"Text",
			"rotation":[
				0.6969548463821411,
				-0.02168203517794609,
				0.021977970376610756,
				0.7164501547813416
			],
			"scale":[
				0.031492169946432114,
				0.031492166221141815,
				0.03149216249585152
			],
			"translation":[
				-0.022626519203186035,
				0.05331101641058922,
				0.0008617108687758446
			]
		},
		{
			"mesh":2,
			"name":"Neuron__0",
			"rotation":[
				-0.1954832375049591,
				0.2598447799682617,
				-0.6361557245254517,
				0.6996949315071106
			],
			"scale":[
				0.00022809518850408494,
				0.00022809534857515246,
				0.00022809540678281337
			],
			"translation":[
				-0.012173975817859173,
				0.004137096926569939,
				0.017398029565811157
			]
		}
	],
	"materials":[
		{
			"doubleSided":true,
			"name":"Material.031",
			"pbrMetallicRoughness":{
				"baseColorFactor":[
					0,
					0,
					0,
					1
				],
				"metallicFactor":0,
				"roughnessFactor":0.5
			}
		},
		{
			"doubleSided":true,
			"name":"Material.032",
			"pbrMetallicRoughness":{
				"baseColorFactor":[
					0.06422781944274902,
					0.06422781944274902,
					0.06422781944274902,
					1
				],
				"metallicFactor":0,
				"roughnessFactor":0.5
			}
		},
		{
			"doubleSided":true,
			"name":"RootNode.001",
			"pbrMetallicRoughness":{
				"metallicFactor":0,
				"roughnessFactor":0.9200000166893005
			}
		}
	],
	"meshes":[
		{
			"name":"Cylinder.051",
			"primitives":[
				{
					"attributes":{
						"POSITION":0,
						"NORMAL":1,
						"TEXCOORD_0":2
					},
					"indices":3,
					"material":0
				}
			]
		},
		{
			"name":"Text.014",
			"primitives":[
				{
					"attributes":{
						"POSITION":4,
						"NORMAL":5,
						"TEXCOORD_0":6
					},
					"indices":7,
					"material":1
				}
			]
		},
		{
			"name":"Neuron__0.001",
			"primitives":[
				{
					"attributes":{
						"POSITION":8,
						"NORMAL":9,
						"TEXCOORD_0":10
					},
					"indices":11,
					"material":2
				}
			]
		}
	],
	"accessors":[
		{
			"bufferView":0,
			"componentType":5126,
			"count":130,
			"max":[
				1,
				1,
				1
			],
			"min":[
				-1,
				-1,
				-1
			],
			"type":"VEC3"
		},
		{
			"bufferView":1,
			"componentType":5126,
			"count":130,
			"type":"VEC3"
		},
		{
			"bufferView":2,
			"componentType":5126,
			"count":130,
			"type":"VEC2"
		},
		{
			"bufferView":3,
			"componentType":5123,
			"count":372,
			"type":"SCALAR"
		},
		{
			"bufferView":4,
			"componentType":5126,
			"count":400,
			"max":[
				0.3152633607387543,
				0,
				0.010765090584754944
			],
			"min":[
				0.05382545292377472,
				0,
				-0.5336409211158752
			],
			"type":"VEC3"
		},
		{
			"bufferView":5,
			"componentType":5126,
			"count":400,
			"type":"VEC3"
		},
		{
			"bufferView":6,
			"componentType":5126,
			"count":400,
			"type":"VEC2"
		},
		{
			"bufferView":7,
			"componentType":5123,
			"count":1188,
			"type":"SCALAR"
		},
		{
			"bufferView":8,
			"componentType":5126,
			"count":10985,
			"max":[
				229.48269653320312,
				258.1391906738281,
				310.91387939453125
			],
			"min":[
				-203.94464111328125,
				-308.26129150390625,
				-110.10747528076172
			],
			"type":"VEC3"
		},
		{
			"bufferView":9,
			"componentType":5126,
			"count":10985,
			"type":"VEC3"
		},
		{
			"bufferView":10,
			"componentType":5126,
			"count":10985,
			"type":"VEC2"
		},
		{
			"bufferView":11,
			"componentType":5123,
			"count":12102,
			"type":"SCALAR"
		}
	],
	"bufferViews":[
		{
			"buffer":0,
			"byteLength":1560,
			"byteOffset":0,
			"target":34962
		},
		{
			"buffer":0,
			"byteLength":1560,
			"byteOffset":1560,
			"target":34962
		},
		{
			"buffer":0,
			"byteLength":1040,
			"byteOffset":3120,
			"target":34962
		},
		{
			"buffer":0,
			"byteLength":744,
			"byteOffset":4160,
			"target":34963
		},
		{
			"buffer":0,
			"byteLength":4800,
			"byteOffset":4904,
			"target":34962
		},
		{
			"buffer":0,
			"byteLength":4800,
			"byteOffset":9704,
			"target":34962
		},
		{
			"buffer":0,
			"byteLength":3200,
			"byteOffset":14504,
			"target":34962
		},
		{
			"buffer":0,
			"byteLength":2376,
			"byteOffset":17704,
			"target":34963
		},
		{
			"buffer":0,
			"byteLength":131820,
			"byteOffset":20080,
			"target":34962
		},
		{
			"buffer":0,
			"byteLength":131820,
			"byteOffset":151900,
			"target":34962
		},
		{
			"buffer":0,
			"byteLength":87880,
			"byteOffset":283720,
			"target":34962
		},
		{
			"buffer":0,
			"byteLength":24204,
			"byteOffset":371600,
			"target":34963
		}
	],
	"buffers":[
		{
			"byteLength":395804,
			"uri":"scene.bin"
		}
	]
}
